<svg width="313" height="22" viewBox="0 0 313 22" fill="none" xmlns="http://www.w3.org/2000/svg">
<path d="M32.125 15.4336C32.5807 15.4336 32.8086 15.6484 32.8086 16.0781C32.8086 16.4948 32.4961 16.8854 31.8711 17.25C31.2591 17.6016 30.4974 17.9857 29.5859 18.4023C28.6745 18.806 27.418 19.2878 25.8164 19.8477C22.1315 21.1367 17.9714 21.7812 13.3359 21.7812C4.53385 21.7812 0.132812 19.0729 0.132812 13.6562C0.132812 11.013 0.966146 8.66927 2.63281 6.625C4.3125 4.56771 6.55859 2.9987 9.37109 1.91797C12.1836 0.824219 15.25 0.277344 18.5703 0.277344C21.8906 0.277344 24.319 0.791667 25.8555 1.82031C27.4049 2.84896 28.1797 4.26172 28.1797 6.05859C28.1797 7.90755 27.4375 9.41797 25.9531 10.5898C24.4818 11.7617 22.5221 12.6341 20.0742 13.207C17.6133 13.7799 14.7943 14.1836 11.6172 14.418C11.8255 16.4362 13.2708 17.6927 15.9531 18.1875C16.6432 18.3047 17.3724 18.3633 18.1406 18.3633C21.1875 18.3633 25.582 17.4453 31.3242 15.6094C31.6758 15.4922 31.9427 15.4336 32.125 15.4336ZM11.6367 12.2695C13.9023 11.6445 15.6927 10.6875 17.0078 9.39844C18.3229 8.10938 18.9805 6.55339 18.9805 4.73047C18.9805 4.2487 18.8242 3.86458 18.5117 3.57812C18.1992 3.29167 17.724 3.14844 17.0859 3.14844C16.4609 3.14844 15.8034 3.42188 15.1133 3.96875C14.4362 4.51562 13.8633 5.23177 13.3945 6.11719C12.4049 7.95312 11.819 10.0039 11.6367 12.2695Z" fill="#004197"/>
<path d="M42.5547 8.24609C41.9557 9.84766 41.6562 11.319 41.6562 12.6602C41.6562 14.0013 41.793 15.0039 42.0664 15.668C42.3398 16.319 42.75 16.8203 43.2969 17.1719C45.1589 18.3438 48.8438 18.4089 54.3516 17.3672C56.9688 16.8724 58.8698 16.4297 60.0547 16.0391C61.2526 15.6354 61.9557 15.4336 62.1641 15.4336C62.6198 15.4336 62.8477 15.6549 62.8477 16.0977C62.8477 16.5404 62.5026 16.9896 61.8125 17.4453C59.9896 18.6302 57.418 19.6523 54.0977 20.5117C50.7773 21.3581 47.0664 21.7812 42.9648 21.7812C38.8763 21.7812 35.7708 21.0521 33.6484 19.5938C31.526 18.1354 30.4648 16.1172 30.4648 13.5391C30.4648 11.9375 30.7969 10.4271 31.4609 9.00781C32.138 7.58854 33.056 6.35807 34.2148 5.31641C35.3867 4.26172 36.7474 3.35026 38.2969 2.58203C41.3958 1.04557 44.9115 0.277344 48.8438 0.277344C53.4271 0.277344 56.6432 0.804688 58.4922 1.85938C58.7005 2.02865 58.8047 2.34766 58.8047 2.81641C58.8047 3.27214 58.6029 4.03385 58.1992 5.10156C57.7956 6.16927 57.2617 7.15885 56.5977 8.07031C55.9466 8.98177 55.3477 9.4375 54.8008 9.4375C54.2539 9.4375 53.8177 9.14453 53.4922 8.55859C53.1667 7.97266 52.8932 7.4974 52.6719 7.13281C52.4505 6.75521 52.1445 6.3125 51.7539 5.80469C51.3633 5.29688 50.9922 4.91276 50.6406 4.65234C50.3021 4.39193 49.8854 4.16406 49.3906 3.96875C48.8958 3.77344 48.2904 3.67578 47.5742 3.67578C46.8711 3.67578 46.1615 3.89062 45.4453 4.32031C44.7422 4.73698 44.1628 5.28385 43.707 5.96094C43.2513 6.625 42.8672 7.38672 42.5547 8.24609ZM63.9805 19.6914C61.5326 18.2201 60.3086 15.987 60.3086 12.9922C60.3086 11.4297 60.6276 9.96484 61.2656 8.59766C61.9167 7.21745 62.8021 6.02604 63.9219 5.02344C65.0547 4.02083 66.3698 3.16146 67.8672 2.44531C70.862 1 74.293 0.277344 78.1602 0.277344C85.7643 0.277344 89.8724 2.6862 90.4844 7.50391C91.3958 7.80339 92.3333 7.95312 93.2969 7.95312C94.2734 7.95312 95.0872 7.88151 95.7383 7.73828C96.3893 7.59505 97.0013 7.38021 97.5742 7.09375C98.1602 6.80729 98.5768 6.66406 98.8242 6.66406C99.319 6.66406 99.5664 6.90495 99.5664 7.38672C99.5664 7.86849 99.1823 8.36979 98.4141 8.89062C96.9688 9.88021 95.0547 10.375 92.6719 10.375C91.7734 10.375 91.0443 10.3294 90.4844 10.2383C90.0677 13.5195 88.375 16.2474 85.4062 18.4219C83.987 19.4635 82.2422 20.2839 80.1719 20.8828C78.1146 21.4818 75.9792 21.7812 73.7656 21.7812C71.5651 21.7812 69.6771 21.6055 68.1016 21.2539C66.526 20.9154 65.1523 20.3945 63.9805 19.6914ZM71.0703 14.7109C71.0703 17.1198 71.9492 18.3242 73.707 18.3242C74.8268 18.3242 75.8685 17.7122 76.832 16.4883C77.8086 15.2643 78.5638 13.7474 79.0977 11.9375C79.6445 10.1276 79.918 8.28516 79.918 6.41016C79.918 4.52214 79.2604 3.57812 77.9453 3.57812C76.7995 3.57812 75.6862 4.11849 74.6055 5.19922C73.5378 6.27995 72.6784 7.6862 72.0273 9.41797C71.3893 11.1367 71.0703 12.901 71.0703 14.7109ZM99.918 0.902344L109.176 0.6875C109.514 0.6875 109.768 0.791667 109.938 1C110.107 1.19531 110.191 1.44271 110.191 1.74219C110.191 2.02865 110.12 2.4974 109.977 3.14844C113.453 1.23438 116.48 0.277344 119.059 0.277344C120.178 0.277344 121.214 0.557292 122.164 1.11719C123.128 1.67708 123.753 2.50391 124.039 3.59766C128.284 1.38411 131.799 0.277344 134.586 0.277344C135.81 0.277344 136.891 0.622396 137.828 1.3125C138.831 2.06771 139.332 3.13542 139.332 4.51562C139.332 5.88281 139.091 7.32812 138.609 8.85156C138.141 10.362 137.665 11.7747 137.184 13.0898C136.715 14.4049 136.48 15.3359 136.48 15.8828C136.48 16.4167 136.617 16.8203 136.891 17.0938C137.164 17.3672 137.529 17.5039 137.984 17.5039C139.664 17.5039 141.747 16.918 144.234 15.7461C144.703 15.5378 145.061 15.4336 145.309 15.4336C145.895 15.4336 146.188 15.668 146.188 16.1367C146.188 16.5534 145.934 16.9505 145.426 17.3281C144.931 17.6927 144.208 18.0964 143.258 18.5391C142.307 18.9818 141.129 19.457 139.723 19.9648C138.329 20.4727 136.689 20.9023 134.801 21.2539C132.913 21.6055 131.227 21.7812 129.742 21.7812C128.271 21.7812 127.171 21.5339 126.441 21.0391C125.712 20.5443 125.348 19.9062 125.348 19.125C125.348 18.3438 125.595 17.1719 126.09 15.6094C126.598 14.0469 127.105 12.5039 127.613 10.9805C128.121 9.44401 128.375 8.33073 128.375 7.64062C128.375 6.9375 128.206 6.4362 127.867 6.13672C127.529 5.82422 127.021 5.66797 126.344 5.66797C125.68 5.66797 124.944 5.77214 124.137 5.98047C123.928 8.20703 123.062 11.599 121.539 16.1562C120.901 18.0703 120.543 19.2682 120.465 19.75C120.387 20.2318 120.335 20.5117 120.309 20.5898C120.283 20.6549 120.237 20.7461 120.172 20.8633C120.055 21.0716 119.807 21.1758 119.43 21.1758C117.555 21.1758 115.699 21.2083 113.863 21.2734C112.04 21.3516 110.862 21.3906 110.328 21.3906C109.807 21.3906 109.547 21.0846 109.547 20.4727C109.547 19.8607 109.749 18.9492 110.152 17.7383C110.556 16.5273 111.005 15.3229 111.5 14.125C112.789 10.9479 113.434 8.57812 113.434 7.01562C113.434 5.85677 112.678 5.27734 111.168 5.27734C110.53 5.27734 109.924 5.38151 109.352 5.58984C108.844 7.32161 107.965 10.0625 106.715 13.8125C105.478 17.5625 104.781 19.6719 104.625 20.1406C104.417 20.8307 104.046 21.1758 103.512 21.1758L93.4727 21.3906C93.3294 21.3906 93.1667 21.2995 92.9844 21.1172C92.8151 20.9479 92.7305 20.7461 92.7305 20.5117C92.7305 20.2643 93.0039 19.4115 93.5508 17.9531C94.1107 16.4818 94.7227 14.9062 95.3867 13.2266C96.0508 11.5339 96.6562 9.67839 97.2031 7.66016C97.763 5.62891 98.043 3.94922 98.043 2.62109L98.0234 1.87891C98.0234 1.22786 98.6549 0.902344 99.918 0.902344ZM149.879 0.902344L159.137 0.6875C159.475 0.6875 159.729 0.791667 159.898 1C160.068 1.19531 160.152 1.44271 160.152 1.74219C160.152 2.02865 160.081 2.4974 159.938 3.14844C163.414 1.23438 166.441 0.277344 169.02 0.277344C170.139 0.277344 171.174 0.557292 172.125 1.11719C173.089 1.67708 173.714 2.50391 174 3.59766C178.245 1.38411 181.76 0.277344 184.547 0.277344C185.771 0.277344 186.852 0.622396 187.789 1.3125C188.792 2.06771 189.293 3.13542 189.293 4.51562C189.293 5.88281 189.052 7.32812 188.57 8.85156C188.102 10.362 187.626 11.7747 187.145 13.0898C186.676 14.4049 186.441 15.3359 186.441 15.8828C186.441 16.4167 186.578 16.8203 186.852 17.0938C187.125 17.3672 187.49 17.5039 187.945 17.5039C189.625 17.5039 191.708 16.918 194.195 15.7461C194.664 15.5378 195.022 15.4336 195.27 15.4336C195.855 15.4336 196.148 15.668 196.148 16.1367C196.148 16.5534 195.895 16.9505 195.387 17.3281C194.892 17.6927 194.169 18.0964 193.219 18.5391C192.268 18.9818 191.09 19.457 189.684 19.9648C188.29 20.4727 186.65 20.9023 184.762 21.2539C182.874 21.6055 181.188 21.7812 179.703 21.7812C178.232 21.7812 177.132 21.5339 176.402 21.0391C175.673 20.5443 175.309 19.9062 175.309 19.125C175.309 18.3438 175.556 17.1719 176.051 15.6094C176.559 14.0469 177.066 12.5039 177.574 10.9805C178.082 9.44401 178.336 8.33073 178.336 7.64062C178.336 6.9375 178.167 6.4362 177.828 6.13672C177.49 5.82422 176.982 5.66797 176.305 5.66797C175.641 5.66797 174.905 5.77214 174.098 5.98047C173.889 8.20703 173.023 11.599 171.5 16.1562C170.862 18.0703 170.504 19.2682 170.426 19.75C170.348 20.2318 170.296 20.5117 170.27 20.5898C170.243 20.6549 170.198 20.7461 170.133 20.8633C170.016 21.0716 169.768 21.1758 169.391 21.1758C167.516 21.1758 165.66 21.2083 163.824 21.2734C162.001 21.3516 160.823 21.3906 160.289 21.3906C159.768 21.3906 159.508 21.0846 159.508 20.4727C159.508 19.8607 159.71 18.9492 160.113 17.7383C160.517 16.5273 160.966 15.3229 161.461 14.125C162.75 10.9479 163.395 8.57812 163.395 7.01562C163.395 5.85677 162.639 5.27734 161.129 5.27734C160.491 5.27734 159.885 5.38151 159.312 5.58984C158.805 7.32161 157.926 10.0625 156.676 13.8125C155.439 17.5625 154.742 19.6719 154.586 20.1406C154.378 20.8307 154.007 21.1758 153.473 21.1758L143.434 21.3906C143.29 21.3906 143.128 21.2995 142.945 21.1172C142.776 20.9479 142.691 20.7461 142.691 20.5117C142.691 20.2643 142.965 19.4115 143.512 17.9531C144.072 16.4818 144.684 14.9062 145.348 13.2266C146.012 11.5339 146.617 9.67839 147.164 7.66016C147.724 5.62891 148.004 3.94922 148.004 2.62109L147.984 1.87891C147.984 1.22786 148.616 0.902344 149.879 0.902344ZM225.484 15.4336C225.94 15.4336 226.168 15.6484 226.168 16.0781C226.168 16.4948 225.855 16.8854 225.23 17.25C224.618 17.6016 223.857 17.9857 222.945 18.4023C222.034 18.806 220.777 19.2878 219.176 19.8477C215.491 21.1367 211.331 21.7812 206.695 21.7812C197.893 21.7812 193.492 19.0729 193.492 13.6562C193.492 11.013 194.326 8.66927 195.992 6.625C197.672 4.56771 199.918 2.9987 202.73 1.91797C205.543 0.824219 208.609 0.277344 211.93 0.277344C215.25 0.277344 217.678 0.791667 219.215 1.82031C220.764 2.84896 221.539 4.26172 221.539 6.05859C221.539 7.90755 220.797 9.41797 219.312 10.5898C217.841 11.7617 215.882 12.6341 213.434 13.207C210.973 13.7799 208.154 14.1836 204.977 14.418C205.185 16.4362 206.63 17.6927 209.312 18.1875C210.003 18.3047 210.732 18.3633 211.5 18.3633C214.547 18.3633 218.941 17.4453 224.684 15.6094C225.035 15.4922 225.302 15.4336 225.484 15.4336ZM204.996 12.2695C207.262 11.6445 209.052 10.6875 210.367 9.39844C211.682 8.10938 212.34 6.55339 212.34 4.73047C212.34 4.2487 212.184 3.86458 211.871 3.57812C211.559 3.29167 211.083 3.14844 210.445 3.14844C209.82 3.14844 209.163 3.42188 208.473 3.96875C207.796 4.51562 207.223 5.23177 206.754 6.11719C205.764 7.95312 205.178 10.0039 204.996 12.2695ZM229.898 0.902344L239.156 0.6875C239.495 0.6875 239.749 0.791667 239.918 1C240.087 1.19531 240.172 1.3776 240.172 1.54688C240.172 1.71615 240.126 1.99609 240.035 2.38672C239.944 2.77734 239.827 3.2526 239.684 3.8125C239.54 4.35938 239.449 4.71094 239.41 4.86719C240.426 3.65625 241.695 2.58854 243.219 1.66406C244.742 0.739583 246.083 0.277344 247.242 0.277344C249.703 0.277344 250.934 0.811198 250.934 1.87891C250.934 2.93359 250.602 4.20312 249.938 5.6875C249.273 7.15885 248.648 8.12891 248.062 8.59766C247.776 8.80599 247.424 8.91016 247.008 8.91016C246.604 8.91016 246.227 8.77995 245.875 8.51953C244.299 7.34766 242.581 6.76172 240.719 6.76172C240.003 6.76172 239.378 6.8138 238.844 6.91797C238.336 8.66276 237.529 11.2279 236.422 14.6133C235.315 17.9857 234.703 19.8672 234.586 20.2578C234.391 20.8698 234.026 21.1758 233.492 21.1758C231.604 21.1758 229.579 21.2734 227.418 21.4688C225.257 21.6771 224.013 21.7812 223.688 21.7812C223.375 21.7812 223.128 21.6901 222.945 21.5078C222.776 21.3385 222.691 21.1367 222.691 20.9023C222.691 20.6549 222.965 19.7826 223.512 18.2852C224.072 16.7747 224.684 15.1536 225.348 13.4219C226.025 11.6901 226.637 9.78906 227.184 7.71875C227.743 5.64844 228.023 3.94922 228.023 2.62109L228.004 1.87891C228.004 1.22786 228.635 0.902344 229.898 0.902344ZM262.594 8.24609C261.995 9.84766 261.695 11.319 261.695 12.6602C261.695 14.0013 261.832 15.0039 262.105 15.668C262.379 16.319 262.789 16.8203 263.336 17.1719C265.198 18.3438 268.883 18.4089 274.391 17.3672C277.008 16.8724 278.909 16.4297 280.094 16.0391C281.292 15.6354 281.995 15.4336 282.203 15.4336C282.659 15.4336 282.887 15.6549 282.887 16.0977C282.887 16.5404 282.542 16.9896 281.852 17.4453C280.029 18.6302 277.457 19.6523 274.137 20.5117C270.816 21.3581 267.105 21.7812 263.004 21.7812C258.915 21.7812 255.81 21.0521 253.688 19.5938C251.565 18.1354 250.504 16.1172 250.504 13.5391C250.504 11.9375 250.836 10.4271 251.5 9.00781C252.177 7.58854 253.095 6.35807 254.254 5.31641C255.426 4.26172 256.786 3.35026 258.336 2.58203C261.435 1.04557 264.951 0.277344 268.883 0.277344C273.466 0.277344 276.682 0.804688 278.531 1.85938C278.74 2.02865 278.844 2.34766 278.844 2.81641C278.844 3.27214 278.642 4.03385 278.238 5.10156C277.835 6.16927 277.301 7.15885 276.637 8.07031C275.986 8.98177 275.387 9.4375 274.84 9.4375C274.293 9.4375 273.857 9.14453 273.531 8.55859C273.206 7.97266 272.932 7.4974 272.711 7.13281C272.49 6.75521 272.184 6.3125 271.793 5.80469C271.402 5.29688 271.031 4.91276 270.68 4.65234C270.341 4.39193 269.924 4.16406 269.43 3.96875C268.935 3.77344 268.329 3.67578 267.613 3.67578C266.91 3.67578 266.201 3.89062 265.484 4.32031C264.781 4.73698 264.202 5.28385 263.746 5.96094C263.29 6.625 262.906 7.38672 262.594 8.24609ZM312.242 15.4336C312.698 15.4336 312.926 15.6484 312.926 16.0781C312.926 16.4948 312.613 16.8854 311.988 17.25C311.376 17.6016 310.615 17.9857 309.703 18.4023C308.792 18.806 307.535 19.2878 305.934 19.8477C302.249 21.1367 298.089 21.7812 293.453 21.7812C284.651 21.7812 280.25 19.0729 280.25 13.6562C280.25 11.013 281.083 8.66927 282.75 6.625C284.43 4.56771 286.676 2.9987 289.488 1.91797C292.301 0.824219 295.367 0.277344 298.688 0.277344C302.008 0.277344 304.436 0.791667 305.973 1.82031C307.522 2.84896 308.297 4.26172 308.297 6.05859C308.297 7.90755 307.555 9.41797 306.07 10.5898C304.599 11.7617 302.639 12.6341 300.191 13.207C297.73 13.7799 294.911 14.1836 291.734 14.418C291.943 16.4362 293.388 17.6927 296.07 18.1875C296.76 18.3047 297.49 18.3633 298.258 18.3633C301.305 18.3633 305.699 17.4453 311.441 15.6094C311.793 15.4922 312.06 15.4336 312.242 15.4336ZM291.754 12.2695C294.02 11.6445 295.81 10.6875 297.125 9.39844C298.44 8.10938 299.098 6.55339 299.098 4.73047C299.098 4.2487 298.941 3.86458 298.629 3.57812C298.316 3.29167 297.841 3.14844 297.203 3.14844C296.578 3.14844 295.921 3.42188 295.23 3.96875C294.553 4.51562 293.98 5.23177 293.512 6.11719C292.522 7.95312 291.936 10.0039 291.754 12.2695Z" fill="#E2342D"/>
</svg>
