<svg width="19" height="23" viewBox="0 0 19 23" fill="none" xmlns="http://www.w3.org/2000/svg">
<path d="M9.28975 11.854H9.43574C10.0396 11.8669 10.6391 11.7494 11.1934 11.5095C11.7477 11.2696 12.2438 10.913 12.6477 10.464C14.4017 8.48702 14.1097 5.09702 14.0787 4.77402C14.1093 3.95126 13.9208 3.13515 13.5325 2.40914C13.1442 1.68314 12.5701 1.0733 11.8687 0.642018C11.119 0.223664 10.2753 0.00274689 9.41675 1.77064e-05H9.33975C8.48317 -0.00224519 7.63996 0.212426 6.88875 0.624018C6.1799 1.05366 5.59876 1.66494 5.20546 2.39457C4.81216 3.12421 4.62099 3.9457 4.65175 4.77402C4.61975 5.09702 4.32875 8.48702 6.08275 10.464C6.48561 10.9131 6.98075 11.2698 7.53427 11.5097C8.08779 11.7496 8.68661 11.867 9.28975 11.854ZM5.86874 4.88802C5.86874 4.87402 5.86874 4.86102 5.86874 4.85202C6.01874 1.58502 8.33775 1.23502 9.33075 1.23502H9.38574C10.6157 1.26202 12.7067 1.76302 12.8477 4.85202C12.8453 4.86389 12.8453 4.87614 12.8477 4.88802C12.8477 4.92002 13.1707 8.01802 11.7227 9.64902C11.4275 9.97404 11.0641 10.2299 10.6586 10.3985C10.2531 10.567 9.81541 10.644 9.37674 10.624H9.33075C8.89265 10.6441 8.45553 10.5671 8.05066 10.3986C7.64578 10.23 7.28315 9.97406 6.98874 9.64902C5.55374 8.02702 5.86375 4.91602 5.86775 4.88802H5.86874Z" fill="#222222"/>
<path d="M18.7249 17.4771V17.4671C18.7249 17.4311 18.7249 17.3941 18.7249 17.3531C18.6979 16.4531 18.6379 14.3421 16.6609 13.6671L16.6149 13.6531C15.2712 13.2831 13.995 12.7019 12.8339 11.9311C12.7678 11.8831 12.6929 11.8488 12.6134 11.8301C12.534 11.8114 12.4516 11.8087 12.3711 11.8221C12.2906 11.8356 12.2136 11.8649 12.1445 11.9085C12.0755 11.952 12.0158 12.0089 11.9689 12.0757C11.9221 12.1425 11.889 12.218 11.8716 12.2978C11.8542 12.3775 11.8529 12.4599 11.8677 12.5402C11.8825 12.6205 11.9131 12.697 11.9578 12.7653C12.0024 12.8336 12.0603 12.8923 12.1279 12.9381C13.4023 13.7921 14.8069 14.4338 16.2869 14.8381C17.3489 15.2161 17.4669 16.3511 17.4989 17.3891C17.4965 17.427 17.4965 17.4651 17.4989 17.5031C17.5057 17.9744 17.4723 18.4454 17.3989 18.9111C14.9188 20.1927 12.1579 20.8348 9.36685 20.7791C6.5745 20.8302 3.81317 20.1869 1.33085 18.9071C1.25519 18.4417 1.22172 17.9705 1.23085 17.4991C1.23085 17.4631 1.23085 17.4261 1.23085 17.3851C1.26285 16.3461 1.38085 15.2121 2.44285 14.8341C3.922 14.4276 5.32623 13.7861 6.60185 12.9341C6.73241 12.8393 6.82049 12.697 6.8471 12.5378C6.8737 12.3787 6.8367 12.2155 6.74408 12.0834C6.65146 11.9513 6.51063 11.8608 6.35196 11.8316C6.19329 11.8024 6.02948 11.8366 5.89585 11.9271C4.73599 12.7 3.45935 13.2815 2.11485 13.6491L2.06886 13.6631C0.0918555 14.3421 0.0328524 16.4511 0.00485242 17.3491C0.00722193 17.3871 0.00722193 17.4251 0.00485242 17.4631V17.4771C-0.0210918 18.1728 0.0571079 18.8685 0.236855 19.5411C0.282502 19.66 0.365715 19.7607 0.473854 19.8281C3.18755 21.3427 6.26035 22.0953 9.36685 22.0061C12.4731 22.0926 15.5452 21.3402 18.2599 19.8281C18.3668 19.7594 18.4497 19.6591 18.4969 19.5411C18.6704 18.8674 18.7472 18.1724 18.7249 17.4771Z" fill="#222222"/>
</svg>
