<svg width="20" height="26" viewBox="0 0 20 26" fill="none" xmlns="http://www.w3.org/2000/svg">
<path d="M9.2895 11.854H9.43549C10.0394 11.8669 10.6389 11.7494 11.1932 11.5095C11.7475 11.2696 12.2436 10.913 12.6475 10.464C14.4015 8.48702 14.1095 5.09702 14.0785 4.77402C14.1091 3.95126 13.9206 3.13515 13.5323 2.40914C13.144 1.68314 12.5699 1.0733 11.8685 0.642018C11.1188 0.223664 10.2751 0.00274689 9.4165 1.77065e-05H9.3395C8.48292 -0.00224519 7.63971 0.212426 6.8885 0.624018C6.17965 1.05366 5.59851 1.66494 5.20521 2.39457C4.81191 3.12421 4.62074 3.9457 4.6515 4.77402C4.6195 5.09702 4.3285 8.48702 6.0825 10.464C6.48536 10.9131 6.9805 11.2698 7.53402 11.5097C8.08754 11.7496 8.68636 11.867 9.2895 11.854ZM5.86849 4.88802C5.86849 4.87402 5.86849 4.86102 5.86849 4.85202C6.01849 1.58502 8.3375 1.23502 9.3305 1.23502H9.38549C10.6155 1.26202 12.7065 1.76302 12.8475 4.85202C12.8451 4.86389 12.8451 4.87614 12.8475 4.88802C12.8475 4.92002 13.1705 8.01802 11.7225 9.64902C11.4273 9.97404 11.0639 10.2299 10.6584 10.3985C10.2529 10.567 9.81516 10.644 9.37649 10.624H9.3305C8.8924 10.6441 8.45528 10.5671 8.05041 10.3986C7.64553 10.23 7.2829 9.97406 6.98849 9.64902C5.55349 8.02702 5.86449 4.91602 5.86849 4.88802Z" fill="#222222"/>
<path d="M18.7249 17.4768V17.4668C18.7249 17.4308 18.7249 17.3938 18.7249 17.3528C18.6979 16.4528 18.6379 14.3418 16.6609 13.6668L16.6149 13.6528C15.2712 13.2828 13.995 12.7016 12.8339 11.9308C12.7678 11.8828 12.6929 11.8485 12.6134 11.8298C12.534 11.8111 12.4516 11.8084 12.3711 11.8218C12.2906 11.8353 12.2136 11.8646 12.1445 11.9082C12.0755 11.9517 12.0158 12.0086 11.9689 12.0754C11.9221 12.1422 11.889 12.2177 11.8716 12.2975C11.8542 12.3772 11.8529 12.4596 11.8677 12.5399C11.8825 12.6202 11.9131 12.6967 11.9578 12.765C12.0024 12.8333 12.0603 12.892 12.1279 12.9378C13.4023 13.7918 14.8069 14.4335 16.2869 14.8378C17.3489 15.2158 17.4669 16.3508 17.4989 17.3888C17.4965 17.4267 17.4965 17.4648 17.4989 17.5028C17.5057 17.9741 17.4723 18.4451 17.3989 18.9108C14.9188 20.1924 12.1579 20.8345 9.36685 20.7788C6.5745 20.8299 3.81317 20.1866 1.33085 18.9068C1.25519 18.4414 1.22172 17.9702 1.23085 17.4988C1.23085 17.4628 1.23085 17.4258 1.23085 17.3848C1.26285 16.3458 1.38085 15.2118 2.44285 14.8338C3.922 14.4273 5.32623 13.7858 6.60185 12.9338C6.73241 12.839 6.82049 12.6967 6.8471 12.5375C6.8737 12.3784 6.8367 12.2152 6.74408 12.0831C6.65146 11.951 6.51063 11.8605 6.35196 11.8313C6.19329 11.8021 6.02948 11.8363 5.89585 11.9268C4.73599 12.6997 3.45935 13.2812 2.11485 13.6488L2.06886 13.6628C0.0918555 14.3418 0.0328524 16.4508 0.00485243 17.3488C0.00722194 17.3868 0.00722194 17.4248 0.00485243 17.4628V17.4768C-0.0210918 18.1725 0.0571079 18.8682 0.236855 19.5408C0.282502 19.6597 0.365715 19.7604 0.473854 19.8278C3.18755 21.3424 6.26035 22.095 9.36685 22.0058C12.4731 22.0923 15.5452 21.3399 18.2599 19.8278C18.3668 19.7591 18.4497 19.6588 18.4969 19.5408C18.6704 18.8671 18.7472 18.1721 18.7249 17.4768Z" fill="#222222"/>
<circle cx="14" cy="20" r="6" fill="#E2342D"/>
</svg>
