<svg width="23" height="25" viewBox="0 0 23 25" fill="none" xmlns="http://www.w3.org/2000/svg">
<path d="M19.0405 21.187L17.3685 5.26399C17.3515 5.10318 17.2756 4.95436 17.1554 4.84617C17.0352 4.73798 16.8792 4.67808 16.7175 4.67799H13.5745V3.96099C13.551 2.90245 13.114 1.89518 12.357 1.15486C11.6 0.41454 10.5833 0 9.52453 0C8.46573 0 7.44901 0.41454 6.69205 1.15486C5.93509 1.89518 5.49806 2.90245 5.47454 3.96099V4.67799H2.32954C2.16783 4.67808 2.01187 4.73798 1.89168 4.84617C1.77149 4.95436 1.69557 5.10318 1.67854 5.26399L0.00353968 21.187C-0.00600832 21.2784 0.00381264 21.3709 0.0323626 21.4583C0.0609136 21.5457 0.107554 21.6262 0.169244 21.6944C0.230944 21.7626 0.306304 21.817 0.390434 21.8542C0.474564 21.8913 0.565574 21.9103 0.657544 21.91H18.3895C18.4812 21.9099 18.5719 21.8906 18.6557 21.8532C18.7394 21.8159 18.8144 21.7614 18.8758 21.6933C18.9372 21.6251 18.9835 21.5448 19.0119 21.4576C19.0403 21.3704 19.05 21.2782 19.0405 21.187ZM6.78254 3.96099C6.78254 3.2339 7.07137 2.53659 7.5855 2.02246C8.09963 1.50833 8.79695 1.21949 9.52403 1.21949C10.2511 1.21949 10.9484 1.50833 11.4625 2.02246C11.9767 2.53659 12.2655 3.2339 12.2655 3.96099V4.67799H6.78254V3.96099ZM1.38254 20.601L2.91954 5.98699H5.47254V7.42999C5.47254 7.60371 5.54155 7.77031 5.66438 7.89315C5.78722 8.01598 5.95382 8.08499 6.12754 8.08499C6.30125 8.08499 6.46786 8.01598 6.59069 7.89315C6.71353 7.77031 6.78254 7.60371 6.78254 7.42999V5.98699H12.2655V7.42999C12.2655 7.60371 12.3345 7.77031 12.4574 7.89315C12.5802 8.01598 12.7468 8.08499 12.9205 8.08499C13.0942 8.08499 13.2608 8.01598 13.3837 7.89315C13.5065 7.77031 13.5755 7.60371 13.5755 7.42999V5.98699H16.1285L17.6635 20.601H1.38254Z" fill="#222222"/>
<circle cx="16.0449" cy="18.8467" r="6" fill="#E2342D"/>
</svg>
